<?xml version="1.0" encoding="UTF-8"?>
<!DOCTYPE svg PUBLIC "-//W3C//DTD SVG 1.0//EN" "http://www.w3.org/TR/2001/REC-SVG-20010904/DTD/svg10.dtd">
<!-- Creator: CorelDRAW -->
<svg xmlns="http://www.w3.org/2000/svg" xml:space="preserve" width="186.048mm" height="182.315mm" version="1.0" style="shape-rendering:geometricPrecision; text-rendering:geometricPrecision; image-rendering:optimizeQuality; fill-rule:evenodd; clip-rule:evenodd"
viewBox="0 0 9768.71 9572.7"
 xmlns:xlink="http://www.w3.org/1999/xlink"
 xmlns:xodm="http://www.corel.com/coreldraw/odm/2003">
 <defs>
  <style type="text/css">
   <![CDATA[
    .fil0 {fill:black}
   ]]>
  </style>
 </defs>
 <g id="Layer_x0020_1">
  <metadata id="CorelCorpID_0Corel-Layer"/>
  <g id="_2360924056224">
   <path class="fil0" d="M3046.17 4130.98c242.83,-132.41 507.07,-224.13 780.02,-269.23 301.09,-49.75 602.17,-26.33 889.36,78.05 286.02,103.95 545.83,285.33 744.43,515.71 213.38,247.54 336.86,547.1 380.54,869.58 57.14,421.76 -24.58,860.57 -188.42,1250.51 -174.99,416.52 -450.52,796.83 -792.76,1091.85 -380.03,327.59 -836.3,545.41 -1335.01,612.97 -294.09,39.85 -603.97,12.24 -891.49,-58.31 -284.89,-69.92 -586.52,-192.26 -825.73,-364.04 -431.77,-310.07 -334.64,-598.29 -176.94,-1034.2 75.76,-209.42 141.58,-406.94 166.23,-630.15 30.39,-275.2 63.62,-558.02 157.12,-820.09 100.49,-281.62 262.14,-512.78 456.25,-737.74 176.08,-204.07 400.25,-376.15 636.4,-504.92zm3245.36 -2218.08l-0.02 -0.02 4 -3.78c125.36,-118.43 254.84,-233.14 384.68,-346.65 142.32,-124.42 285.89,-247.44 429.43,-370.45 86.64,-74.25 173.38,-148.42 259.65,-223.08 117.43,-101.62 232.74,-205.82 348.11,-309.77 59.23,-53.36 118.47,-106.72 177.92,-159.83l33.55 -29.98c194.66,-173.92 383.25,-333.31 635.14,-419.26 169.03,-57.68 351.65,-65.52 525.17,-23.59 169.75,41.01 338.01,133.86 450.45,269.28 550.01,662.4 -4.77,1259.17 -466.16,1752.79 -78.09,83.55 -158.46,167.87 -231.03,256.22 -6.73,8.19 -13.33,16.5 -20.01,24.73 -34.26,42.19 -67.36,80.33 -105.78,118.99 -86.34,86.87 -166.08,181.24 -245.46,274.45 -72.11,84.67 -144.36,170.57 -220.49,251.63 -39.34,41.89 -76.32,85.48 -113.28,129.44 -38.49,45.79 -77.08,92.55 -117.65,136.48l-3.79 4.11 -0.16 -0.16 -691.66 778.81 0.14 0.12 -3.56 4.25c-108.53,129.63 -224.13,254.74 -338.16,379.59 -123.59,135.33 -249.84,271.44 -366.03,413.36l-11.64 12.47 -554.34 575.42 -65.45 -431.1c-33.38,-219.83 -119.72,-425.32 -246.28,-607.59 -136.32,-196.34 -316.61,-363.74 -519.76,-489.27 -55.53,-34.31 -112.74,-65.31 -172.17,-92.31 -43.78,-19.89 -88.12,-37.06 -133.09,-53.97 -56.87,-21.37 -112.1,-42.27 -165.26,-72.07l-263.67 -147.78 1806.67 -1601.51zm-2396.27 2373.29c-225.19,37.21 -443.24,112.82 -643.6,222.08 -191.37,104.36 -374.08,243.46 -516.82,408.9 -157.39,182.41 -293.86,372.69 -375.43,601.31 -37.4,104.81 -62.45,213.26 -81.71,322.73 -23.26,132.16 -38.77,266.33 -53.5,399.68 -15.02,135.99 -42.57,269.03 -80.05,400.54 -31.77,111.5 -70.35,220.04 -109.76,328.98 -34.29,94.77 -81.74,215.53 -86.81,316.28 -4.88,96.8 31.44,165.95 110.48,222.71 194.98,140.02 445.52,238.07 677.5,295.01 235.64,57.83 490.52,82.55 731.47,49.9 415.27,-56.27 794.74,-239.3 1111.03,-511.94 292.44,-252.09 527.07,-577.68 676.56,-933.5 134,-318.95 206.57,-680.97 159.76,-1026.49 -32.33,-238.59 -121.58,-462.39 -279.51,-645.6 -151.01,-175.19 -348.33,-313.68 -565.89,-392.75 -217.52,-79.05 -445.84,-95.49 -673.74,-57.83zm1356.16 -877.26c66.45,31.65 130.73,67.41 193.34,106.1 252.95,156.31 477.96,364.36 647.74,608.87 85.86,123.66 157.83,256.66 212.91,396.79 114.86,-137.81 237.86,-270.72 358.83,-403.17 109.96,-120.4 221.69,-241.1 326.52,-366.29l4.15 -4.16 705.53 -794.41 2.49 -3.33 0.19 -0.2c36.51,-39.54 71.2,-80.15 105.82,-121.33 41.88,-49.81 83.9,-100.53 128.46,-147.96 71.52,-76.16 139.28,-155.3 207,-234.81 86.38,-101.42 173.47,-205.2 267.38,-299.7 28.03,-28.21 52.01,-56.39 77.15,-87.01l21.68 -26.41c78.51,-95.62 163.45,-186.09 247.9,-276.45 88.32,-94.48 176.77,-189.13 259.44,-288.64 78.12,-94.04 154.08,-195.4 211.46,-303.61 107.31,-202.33 134.98,-406.32 -19.94,-592.91 -53.94,-64.97 -140.63,-106.6 -221.37,-126.11 -94.62,-22.86 -193.89,-17.96 -285.99,13.47 -183.12,62.49 -343.69,204.5 -485.28,331.7l-35.19 31.61c-58.72,52.76 -117.6,105.33 -176.25,158.17 -117.52,105.89 -235.21,211.3 -354.84,314.83 -86.89,75.19 -174.09,150 -261.33,224.77 -141.16,120.97 -282.35,241.94 -422.32,364.3 -127.1,111.1 -253.89,223.38 -376.75,339.42l-4.99 4.16 -1333.74 1182.29z"/>
   <path class="fil0" d="M25.97 8618.81c30.65,-62.97 88.47,-115.94 175.58,-140.41 104.71,-29.41 298.77,-19.4 505.83,8 284.57,37.65 597.02,108.16 730.56,153.16 127.84,43.08 240.23,87.56 350.32,131.13 217.45,86.06 426,168.6 697.74,220.03 209.02,39.56 431.82,59.66 654.04,59.79 220.37,0.14 440.59,-19.35 646.66,-58.95 260.4,-50.04 459.16,-128.55 662.87,-209.01 122.2,-48.27 246.18,-97.25 388.24,-141.96 398.3,-125.37 809.67,-182.4 1218.56,-177.06 421.9,5.51 840.74,77.38 1239.5,209.02 101.92,33.65 194.33,71.96 286.84,110.31 72.79,30.17 145.68,60.39 220.25,87.24 389.25,140.18 755.5,160.52 981.62,173.08 111.29,6.18 190.2,10.57 229.49,27.69 76.77,33.45 121.32,93.22 138.75,160 7.71,29.56 9.97,60.46 7.25,90.95 -2.73,30.44 -10.38,60.43 -22.47,88.19 -29.5,67.7 -85.54,123.47 -161.69,143.36 -115.24,30.1 -303.27,21.95 -502.85,-3.46 -290.22,-36.94 -607.07,-110.18 -755.29,-154.33 -116.74,-34.77 -224.68,-80.97 -332.54,-127.13 -59.07,-25.28 -118.13,-50.56 -176.76,-73.2 -277.11,-107.03 -581.96,-173.28 -890.93,-199.51 -316.49,-26.87 -636.68,-11.71 -935.21,44.63 -325.39,61.41 -496.23,133.02 -678.61,209.46 -107.78,45.17 -219.55,92.02 -371.33,140.26 -388.01,123.31 -818.31,182.72 -1246.35,177.6 -425.77,-5.1 -849.54,-73.98 -1227.52,-207.25 -101.46,-35.77 -195,-72.62 -286.38,-108.62 -240.01,-94.54 -465.11,-183.21 -777.1,-228.79 -45.45,-6.64 -146.4,-12.86 -254.8,-19.54 -170.83,-10.52 -359.65,-22.17 -399.38,-41.51 -67.93,-33.06 -112.39,-92.02 -130.96,-158.14 -8.5,-30.25 -11.57,-61.92 -8.99,-93.18 2.59,-31.46 10.88,-62.69 25.08,-91.86z"/>
  </g>
 </g>
</svg>
