<?xml version="1.0" encoding="UTF-8"?>
<!DOCTYPE svg PUBLIC "-//W3C//DTD SVG 1.0//EN" "http://www.w3.org/TR/2001/REC-SVG-20010904/DTD/svg10.dtd">
<!-- Creator: CorelDRAW -->
<svg xmlns="http://www.w3.org/2000/svg" xml:space="preserve" width="142.065mm" height="66.0957mm" version="1.0" style="shape-rendering:geometricPrecision; text-rendering:geometricPrecision; image-rendering:optimizeQuality; fill-rule:evenodd; clip-rule:evenodd"
viewBox="0 0 11920.77 5546.12"
 xmlns:xlink="http://www.w3.org/1999/xlink"
 xmlns:xodm="http://www.corel.com/coreldraw/odm/2003">
 <defs>
  <style type="text/css">
   <![CDATA[
    .fil0 {fill:black}
   ]]>
  </style>
 </defs>
 <g id="Layer_x0020_1">
  <metadata id="CorelCorpID_0Corel-Layer"/>
  <path class="fil0" d="M2730.91 984.43c122.16,-31.07 108.11,-265.53 122.26,-364.26 90.53,-560.97 267.67,-609.47 803.66,-609.47l3806.02 0c152.56,0 305.29,-8.33 457.91,-10.21 147.09,-1.81 305.26,0.07 449.91,28.03 281.13,54.37 390.31,243.93 429.71,503.8l5.75 0.09 0 17.25c375.13,16.9 750.02,-0.18 1125.24,-0.18 397.64,0 529.99,-18.3 782.18,321.61 160.13,215.85 325.33,427.91 486.86,643.23 151.27,218.28 308.82,431.27 468.97,642.57 279.93,369.38 283.82,393.85 212.76,850.71 -50.34,323.68 -87.95,649.16 -138.99,972.75 -33.71,302.79 -32.12,617.14 -304.39,814.27 -249.94,180.96 -704.18,90.47 -999.01,108.12l0 4.85 -6.4 6.41c-24.87,24.86 -41.67,60.1 -56.49,91.6 -18.74,39.82 -36.53,79.17 -62.9,114.34 -172.2,245.93 -461.64,382.64 -761.58,341.17 -308.01,-42.58 -534.93,-258.69 -615.5,-556.88l-0.34 -1.27 -3345.72 0 0 2.84 -4.37 5.83c-53.03,70.77 -66.39,168.96 -121.03,242.46 -168.45,272.01 -467.04,432.78 -788.38,382.98 -336.35,-52.13 -564.61,-311.05 -641.34,-633.49l-0.15 -0.62c-102.65,0.1 -206.14,4.09 -308.76,7.04 -144.73,4.16 -289.47,8.21 -434.24,10.3 -140.39,2.03 -281.76,2.82 -422.07,-2.75 -80.48,-3.19 -204.18,-7.78 -280.32,-33.14 -169.87,-56.59 -309.55,-223.47 -344.64,-398.26 -53.12,-213.47 16.31,-438.57 51.57,-649.59l0 -10.99 -2152.35 0 -1.8 -0.3c-117.1,-19.58 -180.24,-157.18 -119.35,-258.81 59.91,-100 231.12,-80.16 331.55,-80.16l2572.14 0c105.38,0 241,-14.31 297.67,99.05l0.48 1.02c72.16,165 -69.36,222.19 -206.34,239.04 -72.99,8.99 -149.04,8.96 -222.47,6.68 -53.14,-1.66 -107.71,-6.28 -160.69,-6.5l-0.22 0.87c-20.17,80.45 -40.05,160.97 -56.32,242.32 -15.26,76.33 -29.98,161.14 -29.98,239.06 0,71.56 38.2,148.19 95.7,191.27 48.68,38.83 563.71,38.77 642.74,38.77 149.41,0 298.84,-1.89 448.23,-4.33 93.83,-1.54 188.2,-4.26 282.02,-4.34l0.22 -0.86c231.61,-926.05 1411.49,-995.24 1589.55,1.24l0.24 0.05c51.71,10.37 107.62,14.32 160.24,17.03 68.09,3.51 136.51,4.33 204.68,4.33 131.84,0 263.63,-4.35 395.39,-4.35 283.85,0 567.71,0 851.56,0 126,0 259.22,22.34 384.14,6.75 125.31,-15.64 207.54,-69.82 237.55,-198.44 53.31,-228.5 83.36,-462.28 121.34,-693.65 153.2,-933.26 316.07,-1864.9 469.26,-2798.16 17.95,-109.34 48.72,-246.13 31.23,-355.74 -20.84,-130.75 -107.82,-175.07 -235.66,-175.07 -869,0 -1737.99,0 -2607,0 -394.63,0 -789.36,-4.3 -1184.08,-4.29 -241.42,0.01 -483.06,0.44 -724.44,4.36 -82.88,1.34 -166.01,2.92 -248.82,6.63 -23.54,1.05 -90.46,2.5 -112.17,9.48 -75.24,28.82 -129.7,195.65 -149.19,265.58 -24.91,89.37 -56.14,242.77 -45.19,335.1 158.57,-0.08 317.3,-4.3 476.03,-4.28 93.48,0.01 187.44,0.55 280.85,4.38 40.65,1.67 131.3,4.15 168.26,18.89l0.86 0.34 0.82 0.41c114.2,57.1 141.26,215.29 38.53,297.32 -95.04,75.9 -314.08,39.45 -430.8,39.45l-2850.25 0c-121.24,0 -299.14,12.25 -299.98,-159.71 -8.07,-75.76 20.41,-131.61 92.39,-158.62 57.16,-21.44 129.32,-20.95 190.16,-20.95 318.65,0 637.31,0 955.96,0 220.33,0 440.11,17.43 660.43,17.43l2.17 0 2.12 0.43c85.55,17.14 200.76,17.18 286.42,0.1zm-1527.95 1893.96c22.27,-6.6 53.62,-8.89 75.97,-10.68 44.38,-3.57 89.17,-5.34 133.68,-6.74 122.27,-3.85 244.97,-4.36 367.3,-4.36 208.58,0 417.17,4.35 625.61,4.35 480.82,0 961.64,0 1442.46,0 109.96,0 304.11,-36.94 381.94,60.3 77.81,97.2 39.61,237.97 -79.69,277.67l-0.89 0.27c-25.06,7.17 -58.44,9.54 -84.46,11.54 -45.83,3.52 -92,5.31 -137.94,6.73 -124,3.82 -248.4,4.36 -372.46,4.36 -209.31,0 -418.62,-4.35 -627.79,-4.35 -486.63,0 -973.26,0 -1459.89,0 -101.9,0 -303.9,17.93 -380.34,-58.5l-0.7 -0.7 -0.64 -0.76c-92.65,-111.27 -29.33,-236 96.86,-278l3.36 -1.12 17.62 0zm1042.2 -1268.73c29.35,-10.38 87.06,-13.67 115.7,-15.66 75.12,-5.2 150.92,-7.33 226.19,-9.04 215.94,-4.9 432.5,-4.54 648.49,-3.56 226.89,1.03 453.79,3.47 680.67,6.22 145.16,1.75 290.73,4.6 435.88,4.6 100.43,0 237.77,28.87 260.43,145.95 15.76,81.33 -37.74,163.48 -113.47,191.85 -37.03,14.84 -132.39,17.27 -173.54,18.89 -97.4,3.84 -195.33,4.38 -292.81,4.38 -165.89,0 -331.79,-4.36 -497.51,-4.36 -382.37,0 -764.73,0 -1147.11,0 -98.93,0 -229.49,-28.4 -262.16,-137.28 -24.3,-80.99 22.76,-163.11 95.9,-199.68l4.62 -2.31 18.71 0zm928.05 982.04c-32.25,4.57 -70.48,4.8 -103.13,5.83 -63.55,2.01 -127.19,3.01 -190.77,3.82 -175.33,2.2 -350.8,2.35 -526.13,1.33 -83.47,-0.49 -730.57,-1.15 -776.67,-31.85 -125.71,-83.7 -91.92,-279.92 58.93,-317.53l1.1 -0.27 1.12 -0.16c31.81,-4.51 70.33,-4.39 102.56,-5.13 62.9,-1.45 125.89,-1.86 188.81,-2.09 173.33,-0.63 346.76,0.68 520.08,2.71 169,1.99 338.1,4.62 507.05,9.22 57.5,1.57 115.1,3.26 172.55,6.06 18.89,0.92 65.76,1.78 83.05,7.57l0.84 0.28 0.82 0.35c142.17,60.79 102.61,279.37 -37.27,319.24l-1.43 0.41 -1.49 0.21zm-3020.11 -1587.79c95.64,-52.13 194.09,-13.76 234.7,84.88 38.77,94.17 4.22,196.88 -94.97,232.95 -199.07,79.68 -337.72,-218.73 -139.73,-317.83zm597.29 1874.48c198.57,-74.48 281.11,258.95 98.55,320.52 -91.58,36.17 -215.06,3.91 -237.26,-101.83 -38.38,-116.17 6,-180.16 118.46,-217.58l3.36 -1.12 16.88 0zm4060.32 -1266.07c95.81,-52.23 194.26,-13.86 234.87,84.77 38.77,94.18 4.22,196.88 -94.97,232.95 -87.66,35.09 -178.93,0.23 -218.73,-85.09 -41.74,-89.49 -4.43,-182.72 78.05,-232.2l0.78 -0.44zm-74.15 2682.73c-103.34,24.52 -194.74,84.38 -258.45,169.42 -63.28,84.46 -94.99,188.22 -87.15,293.78 17.75,238.87 220.79,409.42 460.68,362.48 235.76,-46.15 362.08,-254.06 334.42,-482.56 -27.52,-227.31 -195.57,-381.38 -430.93,-343.39l-1.73 0.28 -16.84 0zm4902.85 -69.92c-238.15,46.09 -357.69,260.05 -325.66,488.83 31.93,228.05 201.83,383.89 438.9,337.24 234.45,-46.13 348.52,-263.86 319.4,-487.82 -29.63,-227.92 -195.31,-384.19 -432.65,-338.25zm-864.24 -3301.69l-17.62 17.24 -4.89 0c-87.22,609.76 -191.44,1216.94 -295.44,1824.02 -104.11,607.65 -208.39,1215.28 -312.47,1822.94l0 10.93 738.74 0c52.07,-311.53 191.14,-565.31 480.92,-710.2 282.74,-141.37 676.75,-92.54 894.99,143.93 139.95,157.48 194.53,364.35 231.22,566.46 167.26,0.28 599.85,17.08 733.6,-49.79 128.48,-64.24 128.47,-294.05 144.58,-417.67 33.99,-260.79 69.53,-521.39 104.23,-782.3 22.56,-148.27 50.91,-296.97 70.55,-445.15 10.45,-78.78 18.87,-163.64 -0.64,-241.68 -19.71,-78.88 -68.03,-151.12 -114.92,-216.32 -89.37,-124.23 -187.94,-244.79 -280.93,-366.65l-0.53 -0.72c-118.83,-169.73 -245.63,-333.64 -364.47,-503.36 -132.04,-164.98 -260.52,-331.92 -382.65,-504.41 -164.95,-232.99 -506.13,-147.25 -746.76,-147.25 -292.5,0 -585.01,0 -877.51,0zm56.51 1173.49l104.19 -660.42 0.09 -0.44c15.83,-78.98 0.03,-156.63 108.4,-156.63l782.04 0c119.74,0 374.55,-55.24 452.6,61.83l416.83 625.24c38.96,51.92 83.2,100.78 112.44,159.28 39.63,79.3 17.79,135.91 -78.2,135.91l-1807.34 0c-125.98,0 -109.51,-72.74 -91.06,-164.77z"/>
 </g>
</svg>
