<?xml version="1.0" encoding="UTF-8"?>
<!DOCTYPE svg PUBLIC "-//W3C//DTD SVG 1.0//EN" "http://www.w3.org/TR/2001/REC-SVG-20010904/DTD/svg10.dtd">
<!-- Creator: CorelDRAW -->
<svg xmlns="http://www.w3.org/2000/svg" xml:space="preserve" width="6.2748mm" height="2.9123mm" version="1.0" style="shape-rendering:geometricPrecision; text-rendering:geometricPrecision; image-rendering:optimizeQuality; fill-rule:evenodd; clip-rule:evenodd"
viewBox="0 0 6.84 3.17"
 xmlns:xlink="http://www.w3.org/1999/xlink"
 xmlns:xodm="http://www.corel.com/coreldraw/odm/2003">
 <defs>
  <style type="text/css">
   <![CDATA[
    .fil0 {fill:black}
   ]]>
  </style>
 </defs>
 <g id="Layer_x0020_1">
  <metadata id="CorelCorpID_0Corel-Layer"/>
  <path class="fil0" d="M5.06 0.32c-0.02,-0.16 -0.08,-0.27 -0.24,-0.3 -0.15,-0.03 -0.36,-0.01 -0.52,-0.01l-2.19 0c-0.31,0 -0.4,0.03 -0.45,0.34 -0.01,0.07 -0,0.2 -0.08,0.22 -0.05,0.01 -0.12,0.01 -0.17,0 -0.13,-0 -0.25,-0.01 -0.38,-0.01 -0.18,0 -0.37,0 -0.55,-0 -0.07,-0 -0.16,0 -0.15,0.09 0,0.09 0.1,0.08 0.16,0.08l1.64 0c0.06,0 0.19,0.02 0.24,-0.02 0.05,-0.04 0.04,-0.12 -0.02,-0.15 -0.05,-0.02 -0.45,-0.01 -0.53,-0.01l-0.01 0 -0 -0.01c-0.01,-0.08 0.04,-0.33 0.12,-0.36 0.06,-0.02 1.18,-0.01 1.31,-0.01 0.5,0 1,0 1.5,0 0.2,0 0.15,0.19 0.13,0.32 -0.09,0.54 -0.18,1.07 -0.27,1.61 -0.02,0.13 -0.04,0.27 -0.07,0.4 -0.04,0.17 -0.23,0.12 -0.37,0.12 -0.16,0 -0.33,0 -0.49,0 -0.12,0 -0.34,0.01 -0.44,-0.01l-0.01 -0 -0 -0.01c-0.1,-0.56 -0.76,-0.52 -0.89,0l-0 0.01 -0.01 0c-0.11,0 -0.75,0.02 -0.8,-0.02 -0.04,-0.03 -0.06,-0.08 -0.06,-0.12 -0,-0.08 0.03,-0.2 0.05,-0.28l0 -0.01 0.01 -0c0.08,-0 0.4,0.04 0.33,-0.12 -0.03,-0.06 -0.11,-0.05 -0.16,-0.05l-1.48 0c-0.06,0 -0.15,-0.01 -0.18,0.04 -0.03,0.05 0,0.12 0.06,0.13l1.25 0 -0 0.02c-0.02,0.12 -0.06,0.25 -0.03,0.37 0.02,0.1 0.1,0.19 0.19,0.22 0.12,0.04 0.67,0.01 0.83,0.01l0.01 0 0 0.01c0.1,0.42 0.59,0.48 0.8,0.14 0.03,-0.04 0.04,-0.1 0.07,-0.14l0 -0.01 1.95 -0 0 0.01c0.1,0.37 0.56,0.42 0.77,0.12 0.03,-0.04 0.04,-0.09 0.07,-0.12l0 -0.01 0.01 -0c0.16,-0.01 0.43,0.04 0.57,-0.06 0.15,-0.11 0.15,-0.28 0.17,-0.46 0.03,-0.19 0.05,-0.37 0.08,-0.56 0.04,-0.26 0.04,-0.27 -0.12,-0.48 -0.09,-0.12 -0.18,-0.24 -0.27,-0.37 -0.09,-0.12 -0.19,-0.25 -0.28,-0.37 -0.14,-0.19 -0.21,-0.18 -0.44,-0.18 -0.22,0 -0.43,0.01 -0.65,-0l-0.01 -0 -0 -0.01zm-2.32 2.13c0.31,-0.05 0.37,0.44 0.06,0.5 -0.15,0.03 -0.27,-0.08 -0.28,-0.22 -0.01,-0.13 0.08,-0.25 0.21,-0.28zm2.81 -0.04c0.31,-0.06 0.37,0.44 0.07,0.5 -0.31,0.06 -0.38,-0.44 -0.07,-0.5zm-0.5 -1.9c0.17,0 0.34,0 0.51,0 0.14,0 0.34,-0.05 0.44,0.09 0.07,0.1 0.14,0.19 0.22,0.29 0.07,0.1 0.14,0.19 0.21,0.29 0.29,0.38 0.26,0.28 0.19,0.74 -0.02,0.15 -0.04,0.3 -0.06,0.45 -0.01,0.08 -0.01,0.21 -0.09,0.25 -0.08,0.04 -0.34,0.03 -0.43,0.03l-0.01 -0 -0 -0.01c-0.02,-0.11 -0.05,-0.23 -0.13,-0.32 -0.12,-0.13 -0.34,-0.16 -0.5,-0.08 -0.16,0.08 -0.24,0.22 -0.27,0.4l-0 0.01 -0.45 0 0 -0.02c0.06,-0.35 0.12,-0.7 0.18,-1.05 0.06,-0.35 0.12,-0.7 0.17,-1.05l0 -0.01 0.01 0zm0.1 0.77l1.03 0c0.1,0 -0,-0.11 -0.03,-0.15l-0.24 -0.36c-0.04,-0.06 -0.19,-0.03 -0.25,-0.03l-0.45 -0c-0.05,0 -0.04,0.03 -0.05,0.08l-0.06 0.38c-0.01,0.05 -0.02,0.08 0.04,0.08zm-4.46 0.38c-0.06,0.02 -0.1,0.08 -0.05,0.14 0.04,0.04 0.16,0.03 0.21,0.03 0.28,0 0.56,0 0.84,0 0.1,0 0.63,0.01 0.7,-0.01 0.06,-0.02 0.08,-0.09 0.04,-0.14 -0.04,-0.05 -0.15,-0.03 -0.21,-0.03 -0.28,0 -0.55,-0 -0.83,-0 -0.1,-0 -0.63,-0.01 -0.69,0.01zm0.6 -0.73c-0.08,0.04 -0.08,0.17 0.09,0.17 0.22,-0 0.44,0 0.66,0 0.08,0 0.5,0.01 0.55,-0.01 0.08,-0.03 0.1,-0.17 -0.08,-0.17 -0.17,0 -1.14,-0.02 -1.21,0.01zm-0.34 0.37c-0.08,0.02 -0.09,0.12 -0.03,0.16 0.03,0.02 0.84,0.02 0.91,0.01 0.07,-0.02 0.09,-0.13 0.02,-0.16 -0.03,-0.01 -0.83,-0.02 -0.9,-0.01zm-0.85 -0.72c-0.1,0.05 -0.03,0.2 0.07,0.16 0.11,-0.04 0.04,-0.22 -0.07,-0.16zm0.33 1.08c-0.06,0.02 -0.08,0.05 -0.06,0.11 0.01,0.05 0.07,0.07 0.12,0.05 0.09,-0.03 0.05,-0.2 -0.05,-0.16zm2.35 -0.73c-0.1,0.06 -0.03,0.2 0.07,0.16 0.11,-0.04 0.04,-0.22 -0.07,-0.16z"/>
 </g>
</svg>
