<?xml version="1.0" encoding="UTF-8"?>
<!DOCTYPE svg PUBLIC "-//W3C//DTD SVG 1.0//EN" "http://www.w3.org/TR/2001/REC-SVG-20010904/DTD/svg10.dtd">
<!-- Creator: CorelDRAW -->
<svg xmlns="http://www.w3.org/2000/svg" xml:space="preserve" width="3.4959mm" height="3.4977mm" version="1.0" style="shape-rendering:geometricPrecision; text-rendering:geometricPrecision; image-rendering:optimizeQuality; fill-rule:evenodd; clip-rule:evenodd"
viewBox="0 0 2.2 2.2"
 xmlns:xlink="http://www.w3.org/1999/xlink"
 xmlns:xodm="http://www.corel.com/coreldraw/odm/2003">
 <defs>
  <style type="text/css">
   <![CDATA[
    .fil0 {fill:black}
   ]]>
  </style>
 </defs>
 <g id="Layer_x0020_1">
  <metadata id="CorelCorpID_0Corel-Layer"/>
  <g id="_2696017980432">
   <path class="fil0" d="M2.04 0.53c-0.02,0.01 -0.03,0.04 -0.06,0.06 0,0.04 0.01,0.02 0.01,0.11 -0.01,0.14 -0.02,0.16 0.07,0.28 0.03,0.04 0.08,0.1 0.05,0.17 -0.03,0.05 -0.07,0.09 -0.1,0.15 -0.03,0.07 -0.02,0.13 -0.02,0.21 0.01,0.1 -0.01,0.12 -0.08,0.16 -0.17,0.09 -0.16,0.06 -0.24,0.24 -0.03,0.07 -0.05,0.1 -0.15,0.09 -0.08,-0.01 -0.15,-0.02 -0.21,0.01 -0.06,0.03 -0.09,0.07 -0.14,0.09 -0.07,0.04 -0.12,-0 -0.17,-0.04 -0.04,-0.03 -0.09,-0.07 -0.16,-0.08 -0.07,-0.01 -0.18,0.02 -0.23,-0 -0.08,-0.04 -0.07,-0.2 -0.21,-0.27 -0.05,-0.03 -0.12,-0.05 -0.16,-0.08 -0.05,-0.04 -0.02,-0.14 -0.02,-0.21 0.01,-0.18 -0.16,-0.24 -0.13,-0.35 0.01,-0.05 0.07,-0.1 0.09,-0.15 0.1,-0.17 -0.05,-0.3 0.09,-0.38 0.13,-0.07 0.18,-0.05 0.25,-0.23 0.03,-0.06 0.05,-0.11 0.13,-0.12 0.08,-0 0.15,0.02 0.22,-0 0.05,-0.02 0.11,-0.06 0.15,-0.09 0.13,-0.09 0.18,0.07 0.32,0.1 0.08,0.02 0.15,-0.01 0.23,-0 0.07,0.01 0.08,0.07 0.11,0.13 0.01,-0.01 0.06,-0.06 0.06,-0.07 0,-0.02 -0.04,-0.07 -0.05,-0.08 -0.05,-0.06 -0.1,-0.07 -0.2,-0.06 -0.12,0.01 -0.13,0.02 -0.21,-0.04 -0.16,-0.11 -0.2,-0.12 -0.36,-0 -0.08,0.06 -0.1,0.05 -0.21,0.04 -0.23,-0.02 -0.22,0.11 -0.3,0.23 -0.06,0.11 -0.25,0.08 -0.28,0.25 -0.01,0.08 0.02,0.18 -0,0.25 -0.01,0.03 -0.03,0.06 -0.05,0.08 -0.12,0.15 -0.09,0.22 0.02,0.36 0.09,0.12 -0.01,0.21 0.05,0.34 0.02,0.06 0.08,0.09 0.15,0.12 0.08,0.04 0.1,0.04 0.14,0.12 0.03,0.07 0.05,0.13 0.1,0.17 0.06,0.05 0.14,0.04 0.22,0.03 0.1,-0.01 0.14,0.02 0.2,0.07 0.17,0.13 0.24,0.03 0.36,-0.04 0.13,-0.08 0.29,0.07 0.41,-0.11 0.03,-0.05 0.05,-0.13 0.09,-0.17 0.04,-0.04 0.12,-0.06 0.17,-0.09 0.18,-0.1 0.03,-0.28 0.11,-0.4 0.08,-0.12 0.17,-0.18 0.05,-0.36 -0.04,-0.06 -0.08,-0.09 -0.07,-0.2 0,-0.04 0.01,-0.08 0.01,-0.13 -0,-0.05 -0.02,-0.07 -0.03,-0.1z"/>
   <path class="fil0" d="M1.11 1.2c-0.04,-0.02 -0.21,-0.24 -0.26,-0.26 -0.05,-0.02 -0.1,0.02 -0.11,0.06 -0.02,0.06 0.02,0.09 0.05,0.12 0.04,0.04 0.12,0.13 0.17,0.18 0.07,0.07 0.12,0.17 0.21,0.12 0.02,-0.01 0.07,-0.07 0.08,-0.09 0.1,-0.12 0.22,-0.27 0.32,-0.38 0.06,-0.06 0.11,-0.13 0.16,-0.19l0.32 -0.38c0.08,-0.09 -0.05,-0.2 -0.13,-0.13 -0.01,0.01 -0.03,0.03 -0.04,0.05l-0.12 0.15c-0.19,0.22 -0.37,0.45 -0.55,0.67 -0.01,0.02 -0.03,0.03 -0.04,0.05 -0.01,0.01 -0.03,0.04 -0.04,0.05z"/>
   <path class="fil0" d="M1.76 0.86c-0.01,0.01 -0.06,0.07 -0.06,0.08 -0,0.02 0.06,0.17 -0.01,0.37 -0.16,0.45 -0.75,0.57 -1.07,0.19 -0.25,-0.3 -0.15,-0.77 0.19,-0.94 0.2,-0.1 0.42,-0.09 0.62,0.02 0.02,0.01 0.03,0.02 0.04,0.03 0.01,-0.01 0.02,-0.02 0.03,-0.03 0.01,-0.01 0.02,-0.02 0.03,-0.04 -0.06,-0.04 -0.12,-0.08 -0.21,-0.11 -0.09,-0.03 -0.18,-0.04 -0.29,-0.03 -0.19,0.02 -0.34,0.11 -0.43,0.2 -0.23,0.23 -0.29,0.62 -0.06,0.92 0.08,0.11 0.2,0.21 0.38,0.26 0.49,0.13 0.97,-0.28 0.88,-0.8 -0,-0.03 -0.02,-0.11 -0.04,-0.12z"/>
  </g>
 </g>
</svg>
