<?xml version="1.0" encoding="UTF-8"?>
<!DOCTYPE svg PUBLIC "-//W3C//DTD SVG 1.0//EN" "http://www.w3.org/TR/2001/REC-SVG-20010904/DTD/svg10.dtd">
<!-- Creator: CorelDRAW -->
<svg xmlns="http://www.w3.org/2000/svg" xml:space="preserve" width="127.685mm" height="119.101mm" version="1.0" style="shape-rendering:geometricPrecision; text-rendering:geometricPrecision; image-rendering:optimizeQuality; fill-rule:evenodd; clip-rule:evenodd"
viewBox="0 0 4293.21 4004.6"
 xmlns:xlink="http://www.w3.org/1999/xlink"
 xmlns:xodm="http://www.corel.com/coreldraw/odm/2003">
 <defs>
  <style type="text/css">
   <![CDATA[
    .fil0 {fill:black}
    .fil1 {fill:black}
   ]]>
  </style>
 </defs>
 <g id="Layer_x0020_1">
  <metadata id="CorelCorpID_0Corel-Layer"/>
  <g id="_2361038246992">
   <path class="fil0" d="M209.31 1103.65c-357.32,227.81 -167.38,683.76 -81.49,1017.2 61.92,240.39 123.34,486.79 185.69,728.07 25.9,100.21 62.26,275.35 105.49,352.84 179.46,321.71 622.83,239.54 930.58,239.65 242.95,0.08 486.54,1.9 729.41,-0.07 352.73,-3.37 707.09,-0.13 1060,-0.06 256.81,0.06 628.69,50.64 753.65,-295.49 41.44,-114.79 79.6,-289.83 109.87,-414.66 67.67,-279.09 312.62,-1099.03 289.13,-1278.41 -33.79,-257.91 -301.43,-520.65 -611.35,-389.76 -401.58,169.6 -486.22,397.93 -655.22,84.39 -74.31,-137.86 -480.44,-927.43 -562.13,-1012.16 -86.51,-89.73 -209.01,-146.68 -386.87,-133.22 -240.4,51.78 -293.76,174.8 -396.21,365.6 -89.73,167.13 -173.73,331.76 -268.23,498.74 -282.91,499.91 -216.08,519.35 -553.84,330.15 -214.34,-120.06 -400.44,-250.93 -648.47,-92.8zm1877.94 -802.27c-94.3,35.81 -137.61,178.17 -185.16,261.92 -75.87,133.63 -421.84,800.01 -473.01,859.08 -321.4,371.06 -655.3,25.97 -918.98,-88.72 -128.19,-55.76 -231.34,66.09 -232.37,184.34 -0.82,93.48 309.32,1235.7 357.2,1427.15 67.92,271.57 150.68,209.52 674.28,209.36 231.71,-0.07 2133.91,16.37 2215.85,-13.38 108.4,-39.35 116.93,-162.56 150.78,-293.06 61.14,-235.74 121.96,-468.8 181.45,-706.67 58.19,-232.71 273.42,-757.56 14.43,-818.09 -67.48,-15.78 -117.59,23.71 -164.83,49.19 -103.11,55.62 -188.01,105.09 -285.49,158.63 -264.09,145.07 -507.55,6.16 -611.81,-182.51l-467.06 -864.53c-49.28,-97.55 -107.38,-238.89 -255.28,-182.73z"/>
   <g>
    <rect class="fil1" x="495.79" y="3705.82" width="2133.14" height="298.78" rx="117.59" ry="104.2"/>
    <rect class="fil1" x="2726.77" y="3705.82" width="1070.65" height="298.78" rx="59.02" ry="104.2"/>
   </g>
  </g>
 </g>
</svg>
