<?xml version="1.0" encoding="UTF-8"?>
<!DOCTYPE svg PUBLIC "-//W3C//DTD SVG 1.0//EN" "http://www.w3.org/TR/2001/REC-SVG-20010904/DTD/svg10.dtd">
<!-- Creator: CorelDRAW -->
<svg xmlns="http://www.w3.org/2000/svg" xml:space="preserve" width="3.9883mm" height="3.4976mm" version="1.0" style="shape-rendering:geometricPrecision; text-rendering:geometricPrecision; image-rendering:optimizeQuality; fill-rule:evenodd; clip-rule:evenodd"
viewBox="0 0 2.96 2.59"
 xmlns:xlink="http://www.w3.org/1999/xlink"
 xmlns:xodm="http://www.corel.com/coreldraw/odm/2003">
 <defs>
  <style type="text/css">
   <![CDATA[
    .fil0 {fill:black;fill-rule:nonzero}
   ]]>
  </style>
 </defs>
 <g id="Layer_x0020_1">
  <metadata id="CorelCorpID_0Corel-Layer"/>
  <path class="fil0" d="M2.3 1.4c0.01,-0.03 0.04,-0.06 0.08,-0.05 0.03,0.01 0.06,0.04 0.05,0.08l-0.06 0.25c-0.02,0.08 -0.06,0.14 -0.12,0.19l-0 0 0 0c-0.06,0.05 -0.13,0.08 -0.21,0.09l-0 0 -1.04 0.1c-0.09,0.01 -0.18,-0.02 -0.25,-0.07l-0 -0c-0.07,-0.05 -0.12,-0.13 -0.14,-0.22l-0 -0 -0.23 -1.1c-0.01,-0.04 0.02,-0.07 0.05,-0.08 0,-0 0.01,-0 0.01,-0l0 -0 1.08 0c0.04,0 0.06,0.03 0.06,0.06 0,0.04 -0.03,0.06 -0.06,0.06l-1 0 0.22 1.02 0 0c0.01,0.06 0.05,0.11 0.09,0.14l0 0c0.05,0.03 0.1,0.05 0.17,0.05l1.04 -0.1 0 -0c0.05,-0.01 0.1,-0.03 0.14,-0.06l0 0c0.04,-0.03 0.06,-0.07 0.07,-0.12l0.06 -0.25zm-1.8 -0.76c0.01,0.03 -0.01,0.07 -0.05,0.08 -0.03,0.01 -0.07,-0.01 -0.08,-0.05l-0.09 -0.41 -0.21 0c-0.04,0 -0.06,-0.03 -0.06,-0.06 0,-0.04 0.03,-0.06 0.06,-0.06l0.26 0c0.03,0 0.06,0.02 0.06,0.05l0.1 0.46zm1.57 1.75c0.02,-0.02 0.05,-0.04 0.08,-0.04 0.03,0 0.06,0.01 0.08,0.03 0,0 0,0 0.01,0 0.02,0.02 0.04,0.05 0.04,0.08 0,0.03 -0.01,0.06 -0.04,0.08 -0.02,0.02 -0.05,0.04 -0.08,0.04 -0.03,0 -0.06,-0.01 -0.08,-0.04l0 -0 -0 -0c-0.02,-0.02 -0.04,-0.05 -0.04,-0.08 0,-0.03 0.01,-0.06 0.03,-0.08 0,-0 0,-0 0,-0.01zm-1.28 0c0.02,-0.02 0.05,-0.04 0.08,-0.04 0.03,0 0.06,0.01 0.08,0.04l-0 0c0.02,0.02 0.04,0.05 0.04,0.08 0,0.03 -0.01,0.06 -0.04,0.08 -0.02,0.02 -0.05,0.04 -0.08,0.04 -0.03,0 -0.06,-0.01 -0.08,-0.04 -0.02,-0.02 -0.04,-0.05 -0.04,-0.08 0,-0.03 0.01,-0.06 0.04,-0.08zm0.56 -1.32c0.02,-0.01 0.04,-0.01 0.05,0.01 0.01,0.02 0.01,0.04 -0.01,0.05l-0.2 0.15c-0.02,0.01 -0.04,0.01 -0.05,-0.01 -0.01,-0.02 -0.01,-0.04 0.01,-0.05l0.2 -0.15zm0.13 -0.08l-0 -0c-0.01,-0.01 -0.03,-0.02 -0.04,-0.02 -0.02,0 -0.03,0.01 -0.04,0.02 -0.01,0.01 -0.02,0.03 -0.02,0.04 0,0.02 0.01,0.03 0.02,0.04 0.01,0.01 0.03,0.02 0.04,0.02 0.02,0 0.03,-0.01 0.04,-0.02 0.01,-0.01 0.02,-0.03 0.02,-0.04 0,-0.02 -0.01,-0.03 -0.02,-0.04zm0.05 -0.06l0 0c0.03,0.03 0.04,0.06 0.04,0.1 0,0.03 -0.01,0.07 -0.04,0.1l-0 0c-0.03,0.03 -0.06,0.04 -0.1,0.04 -0.03,0 -0.07,-0.01 -0.1,-0.04l-0 -0c-0.03,-0.03 -0.04,-0.06 -0.04,-0.1 0,-0.03 0.01,-0.07 0.04,-0.1l0 -0c0.03,-0.03 0.06,-0.04 0.1,-0.04 0.04,0 0.07,0.01 0.1,0.04zm-0.14 0.57c0.02,0.01 0.02,0.04 0.01,0.05 -0.01,0.02 -0.04,0.02 -0.05,0.01l-0.2 -0.15c-0.02,-0.01 -0.02,-0.04 -0.01,-0.05 0.01,-0.02 0.04,-0.02 0.05,-0.01l0.2 0.15zm0.09 0.06l-0 -0 0 -0c-0.01,-0.01 -0.02,-0.02 -0.04,-0.02 -0.01,-0 -0.03,0.01 -0.04,0.02l-0 0c-0.01,0.01 -0.02,0.03 -0.02,0.04 0,0.02 0.01,0.03 0.02,0.04 0.01,0.01 0.03,0.02 0.04,0.02 0.02,0 0.03,-0.01 0.04,-0.02 0.01,-0.01 0.02,-0.03 0.02,-0.05 0,-0.02 -0.01,-0.03 -0.02,-0.04zm0.05 -0.06l0 0c0.03,0.03 0.04,0.06 0.04,0.1 0,0.03 -0.01,0.07 -0.04,0.1l-0 0c-0.03,0.03 -0.06,0.04 -0.09,0.04 -0.03,0 -0.07,-0.01 -0.1,-0.04l-0 -0c-0.03,-0.03 -0.04,-0.06 -0.04,-0.1 0,-0.03 0.01,-0.07 0.04,-0.1l0.01 -0.01c0.03,-0.02 0.06,-0.04 0.09,-0.04 0.03,0 0.07,0.01 0.09,0.04l0 -0 0 0zm-0.34 -0.29l0 0c0.03,0.03 0.04,0.06 0.04,0.1 0,0.03 -0.01,0.07 -0.04,0.1l-0 0c-0.03,0.03 -0.06,0.04 -0.1,0.04 -0.03,0 -0.07,-0.01 -0.1,-0.04l-0 0c-0.03,-0.03 -0.04,-0.06 -0.04,-0.1 0,-0.03 0.01,-0.07 0.04,-0.1 0.02,-0.03 0.06,-0.04 0.09,-0.04 0.03,0 0.07,0.01 0.1,0.04zm-0.04 0.1c0,-0.02 -0.01,-0.03 -0.02,-0.04 -0.01,-0.01 -0.03,-0.02 -0.04,-0.02 -0.01,0 -0.03,0.01 -0.04,0.01l-0 0c-0.01,0.01 -0.02,0.03 -0.02,0.04 0,0.02 0.01,0.03 0.02,0.04 0.01,0.01 0.03,0.02 0.04,0.02 0.02,0 0.03,-0.01 0.04,-0.02 0.01,-0.01 0.02,-0.03 0.02,-0.04zm1.64 -1.14c-0.11,-0.11 -0.26,-0.17 -0.41,-0.17 -0.32,0 -0.58,0.26 -0.58,0.58 0,0.1 0.03,0.2 0.08,0.29l-0.08 0.3 0.31 -0.08c0.09,0.04 0.18,0.07 0.28,0.07l0 0c0.32,0 0.58,-0.26 0.58,-0.58 0,-0.15 -0.06,-0.3 -0.17,-0.41zm-0.1 0.63c-0.01,0.04 -0.07,0.07 -0.11,0.07 -0.03,0 -0.06,0.01 -0.1,-0.01 -0.02,-0.01 -0.05,-0.02 -0.09,-0.03 -0.16,-0.07 -0.26,-0.23 -0.27,-0.24 -0.01,-0.01 -0.06,-0.09 -0.06,-0.16 0,-0.08 0.04,-0.12 0.06,-0.13 0.01,-0.01 0.03,-0.02 0.04,-0.02 0.01,0 0.02,0 0.03,0 0.01,0 0.02,-0 0.04,0.03 0.01,0.03 0.04,0.11 0.05,0.12 0,0.01 0.01,0.02 0,0.03 -0,0.01 -0.01,0.02 -0.01,0.03 -0.01,0.01 -0.01,0.02 -0.02,0.03 -0.01,0.01 -0.01,0.01 -0.01,0.03 0.01,0.01 0.04,0.07 0.09,0.11 0.06,0.05 0.11,0.07 0.13,0.08 0.01,0.01 0.03,0.01 0.03,-0 0.01,-0.01 0.04,-0.04 0.05,-0.06 0.01,-0.01 0.02,-0.01 0.04,-0.01 0.01,0 0.09,0.04 0.11,0.05l0 0c0.01,0.01 0.03,0.01 0.03,0.02 0,0.01 0,0.04 -0.01,0.08z"/>
 </g>
</svg>
