<?xml version="1.0" encoding="UTF-8"?>
<!DOCTYPE svg PUBLIC "-//W3C//DTD SVG 1.0//EN" "http://www.w3.org/TR/2001/REC-SVG-20010904/DTD/svg10.dtd">
<!-- Creator: CorelDRAW -->
<svg xmlns="http://www.w3.org/2000/svg" xml:space="preserve" width="118.357mm" height="118.432mm" version="1.0" style="shape-rendering:geometricPrecision; text-rendering:geometricPrecision; image-rendering:optimizeQuality; fill-rule:evenodd; clip-rule:evenodd"
viewBox="0 0 3672.02 3674.34"
 xmlns:xlink="http://www.w3.org/1999/xlink"
 xmlns:xodm="http://www.corel.com/coreldraw/odm/2003">
 <defs>
  <style type="text/css">
   <![CDATA[
    .fil0 {fill:#2B2A29}
   ]]>
  </style>
 </defs>
 <g id="Layer_x0020_1">
  <metadata id="CorelCorpID_0Corel-Layer"/>
  <path class="fil0" d="M-0 3674.34c8.09,-1.86 16.18,-3.78 24.26,-5.71 40.54,-9.71 80.88,-20.25 121.14,-31.06 97.75,-26.25 195.05,-54.14 292.35,-81.99 95.52,-27.35 190.97,-54.94 286.81,-81.13 38.21,-10.44 76.49,-20.68 114.96,-30.14 27.64,-6.79 55.38,-13.45 83.49,-18.03 62.59,-10.2 141.11,43.97 197.71,67.45 323.53,134.2 668.82,187.22 1016.02,130.1 320.67,-52.75 614.7,-194.29 869.08,-394.62 399.19,-314.38 633.71,-790.01 663.11,-1295.11 14.61,-251.05 -22.42,-505.07 -109.58,-741.04 -92.21,-249.67 -238.03,-473.81 -427.14,-660.94 -167.66,-165.91 -368.85,-300.68 -586.25,-392.22 -124.43,-52.39 -254.56,-90.71 -387.6,-113.75 -146.65,-25.39 -295.91,-32.02 -444.3,-21.08 -251.01,18.52 -501.21,93.88 -724.09,210.09 -211.17,110.11 -409.91,263.41 -555.03,453.4 -346.92,454.21 -489.85,940.54 -379.94,1507.34 24.33,125.46 63.03,249.02 115.7,365.49 17.13,37.87 35.8,75.02 53.4,112.68 11.27,24.11 21.47,48.13 23.29,75.06 1.84,27.2 -5.01,53.7 -12.18,79.66 -11.91,43.12 -24.73,86 -36,129.3 -64.01,246 -143.44,488.14 -199.21,736.25zm398.46 -447.92c8.27,-56.13 23.17,-111.3 38.64,-165.81 15.16,-53.43 31.71,-106.48 45.7,-160.23 10.94,-42.02 23.24,-83.66 36.26,-125.07 6.91,-22 14.89,-44.44 19.24,-67.09 6.09,-31.61 -7.41,-50.63 -23.51,-76.6 -112.1,-180.83 -186.15,-385.78 -215,-596.6 -91.93,-671.92 241.2,-1278.19 833.05,-1597.27 296.11,-159.63 633.59,-209.44 964.26,-151.52 317.19,55.56 616.52,207.5 849.66,429.46 239.64,228.14 388.12,538.89 438.53,864.11 25.22,162.65 26.02,329.41 1.12,492.15 -24.86,162.49 -75.39,320.75 -152.53,466.04 -309.87,583.61 -941.91,924.26 -1600.34,828.92 -109.56,-15.87 -215.95,-41.1 -319.22,-81.38 -94.18,-36.74 -183.17,-84.56 -271.28,-133.76 -26.08,-14.57 -83.75,-6.8 -112.04,-1.94 -43.15,7.41 -85.2,19.07 -127.22,31.15 -59.83,17.2 -119.13,36.21 -178.91,53.6 -57.85,16.83 -116.43,32.75 -176.05,41.91l-59.06 9.07 8.71 -59.12zm800.9 -2219.17c-107.07,31.74 -179.62,136.82 -210.68,239.4 -25.67,84.77 -23.63,172.79 -4.59,258.74 20.29,91.58 59.43,180.16 105.57,261.51 86.57,152.67 206.99,297.45 332.17,420.2 77.27,75.77 169.7,145.1 260.34,203.93 109.47,71.06 229.43,134.43 352.71,178 226.21,79.94 484.2,98.88 640.27,-116.97 79.73,-110.28 79.87,-211.42 -41.21,-286.98 -48.4,-30.2 -99.81,-61.23 -150.77,-86.73 -55.89,-27.97 -109.02,-50.07 -173.05,-39.82 -62.47,10 -93.48,63.14 -122.13,113.32 -14.92,26.14 -30.55,55.01 -51.37,76.89 -23.82,25.03 -52.41,37.83 -87.42,33.73 -130.62,-15.29 -312.69,-161.24 -409.21,-248.96 -68.36,-62.13 -248.25,-238.67 -256.2,-334.29 -2.88,-34.6 18.9,-68.07 39.34,-94.11 10.12,-12.89 20.95,-25.17 31.73,-37.5 8.13,-9.3 16.89,-19.06 23.96,-29.17 76.74,-109.72 19.24,-225.62 -30.3,-332.15 -23.55,-50.65 -51.95,-110.4 -93.12,-148.63 -45.78,-42.51 -97.39,-47.8 -156.04,-30.41z"/>
 </g>
</svg>
