<?xml version="1.0" encoding="UTF-8"?>
<!DOCTYPE svg PUBLIC "-//W3C//DTD SVG 1.0//EN" "http://www.w3.org/TR/2001/REC-SVG-20010904/DTD/svg10.dtd">
<!-- Creator: CorelDRAW -->
<svg xmlns="http://www.w3.org/2000/svg" xml:space="preserve" width="113.106mm" height="23.95mm" version="1.0" style="shape-rendering:geometricPrecision; text-rendering:geometricPrecision; image-rendering:optimizeQuality; fill-rule:evenodd; clip-rule:evenodd"
viewBox="0 0 11296.34 2391.98"
 xmlns:xlink="http://www.w3.org/1999/xlink"
 xmlns:xodm="http://www.corel.com/coreldraw/odm/2003">
 <defs>
  <style type="text/css">
   <![CDATA[
    .fil0 {fill:#2B2A29;fill-rule:nonzero}
    .fil1 {fill:#9C6521;fill-rule:nonzero}
   ]]>
  </style>
 </defs>
 <g id="Layer_x0020_1">
  <metadata id="CorelCorpID_0Corel-Layer"/>
  <g id="_2696011933312">
   <path class="fil0" d="M473.38 1427.98c288.83,0 488.77,-158.76 488.77,-408.94 0,-211.29 -140.14,-327.4 -363.16,-434.78 -154.94,-74.01 -257.21,-102.16 -257.21,-184.01 0,-70.82 75.48,-130.33 176.89,-130.33 75.48,0 153.53,33.09 193.4,114.94l199.1 -142.21c-60.67,-165.44 -212.2,-242.64 -396.77,-242.64 -247.81,0 -444.33,156.15 -444.33,393.27 0,219.13 165.77,303.59 317.01,380.21 141.56,71.69 303.35,150.93 303.35,251.64 0,73.14 -85.45,125.96 -212.77,125.96 -116.78,0 -202.51,-44.11 -261.76,-141.34l-215.9 154.98c90.29,169.79 252.64,263.25 473.38,263.25zm689.03 -27.86l270.02 0 0 -446.1 202.24 0c260.33,0 472.81,-207.81 472.81,-461.48 0,-254.25 -212.48,-462.65 -472.81,-462.65l-472.25 0 0 1370.22zm472.25 -718.63l-202.24 -0.87 0 -377.89 202.24 0c111.94,0 202.79,83.88 202.79,187.2 0,105.94 -90.86,192.43 -202.79,191.56zm1473.46 -380.5l0 -271.09 -810.63 0 0 1369.93 810.63 0 0 -272.83 -540.61 0 0 -284.43 464 0 0 -274.56 -464 0 0 -267.02 540.61 0zm1030.25 0l0 -271.09 -810.63 0 0 1369.93 810.63 0 0 -272.83 -540.62 0 0 -284.43 464 0 0 -274.56 -464 0 0 -267.02 540.62 0zm611.27 -271.67l-391.08 0.87 0 1369.93 391.08 0c434.36,0 699.84,-258.6 699.84,-683.51 0,-427.82 -265.48,-688.16 -699.84,-687.29zm1.71 1096.24l-123.33 0 0 -823.12 120.78 0c266.02,0.29 427.81,156.73 427.81,413.3 0,255.13 -160.94,409.82 -425.25,409.82l0 0zm2713.9 -495.15l-632.04 0 0 254.25 348.35 0c-9.12,165.72 -146.97,266.43 -339.24,266.43 -263.18,0 -445.18,-196.49 -445.18,-434.78 0,-255.99 211.34,-436.22 420.12,-436.22 120.49,0 240.68,59.49 346.07,164.27l149.81 -228.42c-131.58,-130.89 -317.86,-212.16 -492.47,-213.9 -385.09,0 -698.69,322.16 -698.69,714.27 0,392.12 311.9,711.67 708.67,711.67 350.91,0 641.43,-250.47 641.43,-682.06 0,-37.15 -2.56,-75.46 -6.83,-115.51zm1537.57 -329.42l0 -274.56 -810.63 0 0 1375.44 270.01 0 0 -550.58 464 0 0 -274.57 -464 0 0 -275.72 540.62 0zm1178.09 -271.09l-932.83 0 0 272.83 331.26 0 0 1097.4 271.16 0 0 -1097.4 330.41 0 0 -272.83zm626.64 1398.09c288.83,0 488.77,-158.76 488.77,-408.94 0,-211.29 -140.13,-327.4 -363.15,-434.78 -154.95,-74.01 -257.21,-102.16 -257.21,-184.01 0,-70.82 75.47,-130.33 176.88,-130.33 75.48,0 153.54,33.09 193.41,114.94l199.09 -142.21c-60.66,-165.44 -212.19,-242.64 -396.77,-242.64 -247.81,0 -444.33,156.15 -444.33,393.27 0,219.13 165.77,303.59 317.01,380.21 141.56,71.69 303.35,150.93 303.35,251.64 0,73.14 -85.45,125.96 -212.77,125.96 -116.78,0 -202.51,-44.11 -261.75,-141.34l-215.91 154.98c90.3,169.79 252.64,263.25 473.38,263.25zm-3105.86 -27.86l270.02 0 0 -1370.51 -270.02 0 0 1370.51z"/>
   <path class="fil1" d="M2029.37 2388.84l0 -447.7 70.62 0 0 447.7 -70.62 0zm377.56 -316.53l0 316.53 -70.62 0 0 -447.7 58.02 0 253.47 323.48 0 -322.84 71.25 0 0 447.06 -61.78 0 -250.33 -316.53zm813.27 -25.86c-4.2,-4.62 -10.31,-9.56 -18.3,-14.81 -7.98,-5.25 -17.44,-10.21 -28.36,-14.82 -10.94,-4.62 -22.7,-8.41 -35.32,-11.35 -12.6,-2.95 -25.64,-4.42 -39.09,-4.42 -29.42,0 -51.29,5.47 -65.59,16.29 -14.29,10.94 -21.43,26.07 -21.43,45.29 0,14.29 3.99,25.44 11.98,33.64 7.99,8.2 20.17,15.02 36.57,20.38 16.39,5.46 36.98,11.35 61.78,17.65 30.27,7.15 56.55,15.56 78.82,25.44 22.28,9.88 39.3,22.91 51.09,39.31 11.77,16.28 17.65,37.93 17.65,64.73 0,22.6 -4.2,42.15 -12.61,58.43 -8.4,16.4 -20.17,29.64 -35.31,39.93 -15.13,10.31 -32.58,17.77 -52.34,22.61 -19.75,4.83 -40.98,7.24 -63.67,7.24 -22.29,0 -44.46,-2.31 -66.54,-6.93 -22.06,-4.62 -43.08,-11.46 -63.05,-20.49 -19.96,-9.04 -38.35,-20.07 -55.17,-33.1l32.16 -60.54c5.46,5.47 13.35,11.47 23.64,17.98 10.3,6.52 22.28,12.71 35.94,18.61 13.66,5.87 28.58,10.83 44.76,14.81 16.19,3.99 32.69,5.99 49.5,5.99 28.16,0 49.72,-4.94 64.63,-14.71 14.93,-9.88 22.39,-23.97 22.39,-42.36 0,-15.03 -4.83,-27.11 -14.5,-36.14 -9.67,-9.04 -23.75,-16.61 -42.25,-22.91 -18.5,-6.31 -40.56,-12.61 -66.21,-18.93 -29.42,-7.98 -54.02,-16.6 -73.77,-26.06 -19.77,-9.46 -34.58,-21.54 -44.46,-36.46 -9.88,-14.92 -14.81,-33.85 -14.81,-56.96 0,-29.32 7.14,-54.12 21.43,-74.52 14.29,-20.27 33.74,-35.63 58.33,-45.81 24.59,-10.3 52.22,-15.45 82.92,-15.45 20.17,0 39.3,2.21 57.38,6.62 18.08,4.41 35,10.4 50.76,17.98 15.76,7.56 30.17,16.18 43.21,25.84l-32.16 58.02zm584.37 -42.88l-148.8 0 0 385.26 -71.25 0 0 -385.26 -149.43 0 0 -62.43 369.48 0 0 62.43zm282.36 -62.43l66.84 0 174.03 447.7 -74.4 0 -43.72 -121.7 -179.07 0 -43.92 121.7 -75.04 0 175.29 -447.7zm103.94 273.66l-70.52 -196.1 -70.83 196.1 141.35 0zm398.48 -142.5l0 316.53 -70.62 0 0 -447.7 58.01 0 253.48 323.48 0 -322.84 71.25 0 0 447.06 -61.79 0 -250.32 -316.53zm876.94 -68.73l-148.8 0 0 385.26 -71.25 0 0 -385.26 -149.43 0 0 -62.43 369.48 0 0 62.43zm764.77 388.41c-29.43,0 -56.97,-6.09 -82.62,-18.29 -25.64,-12.18 -48.01,-29 -67.14,-50.44 -19.14,-21.44 -34.06,-45.82 -44.78,-73.15 -10.71,-27.33 -16.08,-56.32 -16.08,-87.01 0,-30.69 5.37,-59.49 16.08,-86.38 10.73,-26.91 25.65,-50.87 44.78,-71.89 19.13,-21.01 41.6,-37.41 67.45,-49.18 25.86,-11.77 54.13,-17.66 84.8,-17.66 42.47,0 78.3,8.94 107.51,26.8 29.21,17.87 51.18,41.52 65.9,70.93l-54.23 39.1c-11.77,-24.38 -28.48,-42.67 -50.13,-54.86 -21.64,-12.18 -45.29,-18.28 -70.94,-18.28 -21.01,0 -40.14,4.41 -57.38,13.23 -17.24,8.84 -32.05,20.92 -44.45,36.26 -12.39,15.34 -21.75,32.78 -28.05,52.33 -6.31,19.55 -9.46,40.04 -9.46,61.47 0,22.69 3.57,43.92 10.73,63.69 7.14,19.75 17.22,37.09 30.25,52.01 13.03,14.92 28.38,26.59 46.03,35 17.66,8.41 36.78,12.61 57.39,12.61 24.38,0 47.6,-6.2 69.66,-18.6 22.07,-12.4 42.78,-31.01 62.11,-55.81l0 71.89c-39.09,44.12 -84.9,66.2 -137.45,66.2zm130.52 -177.18l-93.95 0 0 -52.34 153.23 0 0 226.37 -59.28 0 0 -174.03zm275.42 174.03l0 -447.7 70.62 0 0 447.7 -70.62 0zm306.94 0l0 -447.7 298.25 0 0 62.43 -227.63 0 0 133.67 190.42 0 0 58.64 -190.42 0 0 192.96 -70.62 0zm829.02 -385.26l-148.8 0 0 385.26 -71.25 0 0 -385.26 -149.44 0 0 -62.43 369.49 0 0 62.43zm195.34 385.26l0 -447.7 70.62 0 0 447.7 -70.62 0zm377.56 -316.53l0 316.53 -70.62 0 0 -447.7 58.02 0 253.47 323.48 0 -322.84 71.25 0 0 447.06 -61.79 0 -250.32 -316.53zm731.3 319.68c-29.42,0 -56.96,-6.09 -82.61,-18.29 -25.64,-12.18 -48.02,-29 -67.15,-50.44 -19.14,-21.44 -34.06,-45.82 -44.77,-73.15 -10.72,-27.33 -16.08,-56.32 -16.08,-87.01 0,-30.69 5.36,-59.49 16.08,-86.38 10.72,-26.91 25.64,-50.87 44.77,-71.89 19.13,-21.01 41.61,-37.41 67.46,-49.18 25.86,-11.77 54.12,-17.66 84.8,-17.66 42.46,0 78.3,8.94 107.51,26.8 29.2,17.87 51.18,41.52 65.89,70.93l-54.22 39.1c-11.78,-24.38 -28.48,-42.67 -50.13,-54.86 -21.65,-12.18 -45.3,-18.28 -70.94,-18.28 -21.01,0 -40.14,4.41 -57.38,13.23 -17.24,8.84 -32.05,20.92 -44.45,36.26 -12.39,15.34 -21.75,32.78 -28.05,52.33 -6.31,19.55 -9.46,40.04 -9.46,61.47 0,22.69 3.57,43.92 10.72,63.69 7.14,19.75 17.23,37.09 30.26,52.01 13.03,14.92 28.37,26.59 46.03,35 17.66,8.41 36.78,12.61 57.38,12.61 24.38,0 47.6,-6.2 69.67,-18.6 22.07,-12.4 42.78,-31.01 62.11,-55.81l0 71.89c-39.1,44.12 -84.91,66.2 -137.46,66.2zm130.52 -177.18l-93.94 0 0 -52.34 153.22 0 0 226.37 -59.28 0 0 -174.03z"/>
  </g>
 </g>
</svg>
